<!-- icon666.com - MILLIONS vector ICONS FREE -->
<svg id="Capa_1" enable-background="new 0 0 494.001 494.001" viewBox="0 0 494.001 494.001" width="25px"
    xmlns="http://www.w3.org/2000/svg">
    <g>
        <path d="m113.241 463.222-4.3-88.312c-68.332-36.05-108.941-95.703-108.941-160.522 0-52.154 26.017-101.029 73.259-137.619 46.512-36.024 108.215-55.864 173.741-55.864s127.229 19.84 173.742 55.865c47.242 36.59 73.259 85.465 73.259 137.619s-26.017 101.03-73.259 137.621c-46.512 36.023-108.215 55.863-173.742 55.863-1.889 0-3.843-.021-6.01-.067l-113.406 63.371c-9.113 4.959-14.343-.411-14.343-7.955zm133.759-423.021c-125.556 0-227.703 78.141-227.703 174.189 0 58.936 38.629 113.466 103.33 145.859 3.116 1.56 5.148 4.679 5.317 8.159l3.814 78.334 102.12-57.064c1.514-.852 3.232-1.275 4.968-1.222 3.108.084 5.698.124 8.152.124 125.556 0 227.703-78.141 227.703-174.188s-102.144-174.191-227.701-174.191z"/>
    </g>
</svg>