<!-- icon666.com - MILLIONS vector ICONS FREE -->
<svg clip-rule="evenodd" fill-rule="evenodd" stroke-linejoin="round" stroke-miterlimit="2" viewBox="0 0 32 32" width="15px"
    xmlns="http://www.w3.org/2000/svg">
    <g transform="translate(0 -240)">
        <g id="ICON">
            <g transform="matrix(0 .923 -.923 0 212.692 -73.769)">
                <path d="m357.25 197.917c-2.392 0-4.333 1.941-4.333 4.333s1.941 4.333 4.333 4.333 4.333-1.941 4.333-4.333-1.941-4.333-4.333-4.333zm0 2.166c1.196 0 2.167.971 2.167 2.167s-.971 2.167-2.167 2.167-2.167-.971-2.167-2.167.971-2.167 2.167-2.167z"/>
            </g>
            <g transform="matrix(0 .923 -.923 0 202.692 -73.769)">
                <path d="m357.25 197.917c-2.392 0-4.333 1.941-4.333 4.333s1.941 4.333 4.333 4.333 4.333-1.941 4.333-4.333-1.941-4.333-4.333-4.333zm0 2.166c1.196 0 2.167.971 2.167 2.167s-.971 2.167-2.167 2.167-2.167-.971-2.167-2.167.971-2.167 2.167-2.167z"/>
            </g>
            <g transform="matrix(0 .923 -.923 0 192.692 -73.769)">
                <path d="m357.25 197.917c-2.392 0-4.333 1.941-4.333 4.333s1.941 4.333 4.333 4.333 4.333-1.941 4.333-4.333-1.941-4.333-4.333-4.333zm0 2.166c1.196 0 2.167.971 2.167 2.167s-.971 2.167-2.167 2.167-2.167-.971-2.167-2.167.971-2.167 2.167-2.167z"/>
            </g>
        </g>
    </g>
</svg>